<svg xmlns="http://www.w3.org/2000/svg" xmlns:xlink="http://www.w3.org/1999/xlink" viewBox="0 0 471.21 364.58"><defs><style>.cls-1{isolation:isolate;}.cls-2{fill:#010101;}.cls-3{fill:url(#linear-gradient);}.cls-4{fill:url(#linear-gradient-2);}.cls-5{fill:url(#radial-gradient);}.cls-6{fill:url(#linear-gradient-3);}.cls-7{fill:url(#linear-gradient-4);}.cls-8{fill:url(#linear-gradient-5);}.cls-9{fill:url(#linear-gradient-6);}.cls-10{fill:url(#linear-gradient-7);}.cls-11{fill:url(#linear-gradient-8);}.cls-12,.cls-13,.cls-14,.cls-15{mix-blend-mode:multiply;}.cls-12{fill:url(#linear-gradient-9);}.cls-13{fill:url(#linear-gradient-10);}.cls-14{fill:url(#linear-gradient-11);}.cls-15{opacity:0.5;fill:url(#linear-gradient-12);}.cls-16,.cls-17{fill:#fff;}.cls-17{opacity:0.9;}.cls-18{fill:url(#linear-gradient-13);}</style><linearGradient id="linear-gradient" x1="1723.25" y1="-1290.15" x2="1846.8" y2="-1290.15" gradientTransform="translate(-311.36 2298.05) rotate(-23.13)" gradientUnits="userSpaceOnUse"><stop offset="0" stop-color="#d84f27"/><stop offset="0.42" stop-color="#ee6224"/><stop offset="1" stop-color="#ef9423"/></linearGradient><linearGradient id="linear-gradient-2" x1="1153.73" y1="-222.79" x2="1498.02" y2="-222.79" gradientTransform="translate(-248.58 941.3) rotate(-10.9)" xlink:href="#linear-gradient"/><radialGradient id="radial-gradient" cx="1083.86" cy="414.75" r="138.73" gradientUnits="userSpaceOnUse"><stop offset="0.46" stop-color="#fde1d6"/><stop offset="0.87" stop-color="#ea8039"/></radialGradient><linearGradient id="linear-gradient-3" x1="1002.63" y1="429.78" x2="1163.24" y2="429.78" gradientUnits="userSpaceOnUse"><stop offset="0.12" stop-color="#ee662e"/><stop offset="0.38" stop-color="#ee6b2e"/><stop offset="0.67" stop-color="#ef782c"/><stop offset="0.98" stop-color="#f08f2a"/><stop offset="1" stop-color="#f0902a"/></linearGradient><linearGradient id="linear-gradient-4" x1="824.8" y1="469.84" x2="1002.63" y2="469.84" gradientUnits="userSpaceOnUse"><stop offset="0" stop-color="#da4428"/><stop offset="1" stop-color="#ec5f2b"/></linearGradient><linearGradient id="linear-gradient-5" x1="824.8" y1="441.56" x2="1094.95" y2="441.56" gradientUnits="userSpaceOnUse"><stop offset="0" stop-color="#ec6630"/><stop offset="1" stop-color="#f9a03a"/></linearGradient><linearGradient id="linear-gradient-6" x1="990.62" y1="566.96" x2="990.62" y2="526.15" gradientUnits="userSpaceOnUse"><stop offset="0" stop-color="#e66725"/><stop offset="1" stop-color="#f4ae78"/></linearGradient><linearGradient id="linear-gradient-7" x1="864.56" y1="521.67" x2="1048.86" y2="521.67" gradientUnits="userSpaceOnUse"><stop offset="0" stop-color="#d43927"/><stop offset="1" stop-color="#e65725"/></linearGradient><linearGradient id="linear-gradient-8" x1="1337.66" y1="-116.95" x2="1426.62" y2="-219.67" gradientTransform="translate(-248.58 941.3) rotate(-10.9)" gradientUnits="userSpaceOnUse"><stop offset="0" stop-color="#b72127"/><stop offset="0.37" stop-color="#de2927"/><stop offset="0.91" stop-color="#dc5626"/></linearGradient><linearGradient id="linear-gradient-9" x1="-3313.91" y1="-183.96" x2="-3313.91" y2="-183.96" gradientTransform="matrix(0.73, -0.68, 0.68, 0.73, 2748.99, -2071.57)" gradientUnits="userSpaceOnUse"><stop offset="0" stop-color="#ee6224"/><stop offset="1" stop-color="#eeb521"/></linearGradient><linearGradient id="linear-gradient-10" x1="-3314.91" y1="-183.96" x2="-3312.91" y2="-183.96" xlink:href="#linear-gradient-9"/><linearGradient id="linear-gradient-11" x1="311.03" y1="739.36" x2="596.58" y2="739.36" gradientTransform="matrix(1, -0.05, 0.05, 1, 537.93, -211.04)" gradientUnits="userSpaceOnUse"><stop offset="0" stop-color="#fde1d5"/><stop offset="0.26" stop-color="#f9caa0"/><stop offset="0.61" stop-color="#f4ad5d"/><stop offset="0.87" stop-color="#f09b33"/><stop offset="1" stop-color="#ef9423"/></linearGradient><linearGradient id="linear-gradient-12" x1="605.1" y1="678.43" x2="925.61" y2="678.43" gradientTransform="translate(231.31 -179.15) rotate(1.07)" gradientUnits="userSpaceOnUse"><stop offset="0" stop-color="#ee6224"/><stop offset="1" stop-color="#ef9423"/></linearGradient><linearGradient id="linear-gradient-13" x1="1296.84" y1="-284.44" x2="1309.21" y2="-241.17" gradientTransform="translate(-248.58 941.3) rotate(-10.9)" gradientUnits="userSpaceOnUse"><stop offset="0" stop-color="#d84f27"/><stop offset="0.42" stop-color="#ee6224"/><stop offset="1" stop-color="#ee8022"/></linearGradient></defs><title>Embulk final logo</title><g class="cls-1"><g id="Layer_1" data-name="Layer 1"><path class="cls-2" d="M1141.75,633.13h-7.15v79.53a8,8,0,0,0,8,8h7.15V641.13A8,8,0,0,0,1141.75,633.13Z" transform="translate(-754.39 -357.71)"/><path class="cls-2" d="M1170,633.13h-7.28v79.53a8,8,0,0,0,8,8H1178V641.13A8,8,0,0,0,1170,633.13Z" transform="translate(-754.39 -357.71)"/><path class="cls-2" d="M1015.31,657.8a35.13,35.13,0,0,0-18.66,5.3V641.24a8.11,8.11,0,0,0-8.11-8.11h-7.21V690c0,17.81,15.21,32.25,34,32.25s34-14.44,34-32.25S1034.08,657.8,1015.31,657.8Zm0,50.59A18.53,18.53,0,0,1,996.6,690h0v-.87a18.69,18.69,0,1,1,18.66,19.21Z" transform="translate(-754.39 -357.71)"/><path class="cls-2" d="M937.82,654.79a27.9,27.9,0,0,0-20.35,8.78,28,28,0,0,0-48.33,19h0v30.07a8,8,0,0,0,8,8h7.28V682.78a12.71,12.71,0,0,1,25.42,0v29.88a8,8,0,0,0,8,8h7.28V682.78a12.71,12.71,0,0,1,25.42,0v29.88a8,8,0,0,0,8,8h7.28V682.59h0A28,28,0,0,0,937.82,654.79Z" transform="translate(-754.39 -357.71)"/><path class="cls-2" d="M1114.12,658.93h-8.32v32.31h0a15.28,15.28,0,0,1-30.55,0h0V665.88a7,7,0,0,0-7-7H1060v32.31h0a30.55,30.55,0,0,0,61.11,0h0V665.88A7,7,0,0,0,1114.12,658.93Z" transform="translate(-754.39 -357.71)"/><path class="cls-2" d="M1199.16,691.45a4.74,4.74,0,0,1,0-6.36l23.69-26.17h-13.62a12.75,12.75,0,0,0-9.45,4.19l-18.12,20a7.66,7.66,0,0,0,0,10.28l20.87,23.06a12.75,12.75,0,0,0,9.45,4.19h13.62Z" transform="translate(-754.39 -357.71)"/><path class="cls-2" d="M828.14,657c-19.41,0-35.15,14.6-35.15,32.62s15.74,32.62,35.15,32.62c12.22,0,19-3.57,26.06-9-3.44-2.86-6.45-5.5-7.89-6.77a43.78,43.78,0,0,1-8,2.26,61,61,0,0,1-10.16.69,20.73,20.73,0,0,1-18-9.87c1.55-1.31,4.41-3.64,8.14-3.64H850a18.09,18.09,0,0,0,13.23-6.32c0-1.42,0-2.6-.08-2.94C861.55,670.09,846.49,657,828.14,657ZM816.57,684c-4.84,0-7.28,1.26-8.8,2.49a11,11,0,0,1,.53-3.09c2.83-7.65,10.64-13.16,19.84-13.16,10.75,0,17.75,5.75,19.84,13.76Z" transform="translate(-754.39 -357.71)"/><path class="cls-3" d="M868,357.71a61.78,61.78,0,0,1-113.62,48.54c19.86-8.49,51.45-15.17,70.4,7.55C819.42,386,847.72,366.38,868,357.71Z" transform="translate(-754.39 -357.71)"/><path class="cls-4" d="M1162.76,368.21h0s-23,1.38-32.37,3.87c-9,2.41-24.39,8.54-34.13,17.47l-1.54,1.46c-23.4,22.68-73.6,64.64-134.76,76.41C878.93,483,824.8,413.8,824.8,413.8S854.94,596,1026.35,563s146.38-163,145.9-165.54c-4.09-21.24-9.49-29.22-9.49-29.22Z" transform="translate(-754.39 -357.71)"/><path class="cls-5" d="M1172.25,397.43c-4.09-21.24-9.49-29.22-9.49-29.22s8.49,56.35-46,91.16h0c2.59,28.66-1,53.25-7.61,72.82,42.5-27,57.67-63.18,62.54-91.26h0C1175.94,416.61,1172.43,398.36,1172.25,397.43Z" transform="translate(-754.39 -357.71)"/><path class="cls-6" d="M1093.59,392.24a223.4,223.4,0,0,0-14.55,17c-16.41,21.41-42.84,55.7-76.41,82.11a383.51,383.51,0,0,0,46.23-6.63h0c18.17-3.84,43.78-10.18,67.93-25.34h0c54.46-34.81,46-91.16,46-91.16s-23,1.38-32.37,3.87c-9,2.41-24.43,8.56-34.16,17.5,0,0-1,1-1.67,1.66Z" transform="translate(-754.39 -357.71)"/><path class="cls-7" d="M824.8,413.8c0,.08,7.32,44.14,35.13,85,1.43,2.09,2.84,4.08,4.23,6l0,.06c3.49,4.7,17.68,16.52,40,20.09,18.1,2.89,42.49-.44,63.46-11a208.36,208.36,0,0,0,34.93-22.56C861,502.54,824.83,413.87,824.8,413.8Z" transform="translate(-754.39 -357.71)"/><path class="cls-8" d="M960,467.42C878.93,483,824.8,413.8,824.8,413.8h0c0,.07,36.17,88.74,177.83,77.55,33.57-26.41,60-60.7,76.41-82.11a228.83,228.83,0,0,1,15.9-18.43c.12-.13-1.09,1-1.84,1.75C1069.08,415.54,1019.79,455.91,960,467.42Z" transform="translate(-754.39 -357.71)"/><path class="cls-9" d="M1047.4,526.16c-33.14,22.49-72.07,36.57-115.32,31.4h0c25.3,9.47,56.32,12.72,94.27,5.41,8-1.55,15.62-3.31,22.8-5.26a267.05,267.05,0,0,1-1.75-31.55Z" transform="translate(-754.39 -357.71)"/><path class="cls-10" d="M1002.63,491.35a208.36,208.36,0,0,1-34.93,22.56c-21,10.55-45.36,13.88-63.46,11-21.65-3.46-35.65-14.67-39.68-19.64,15.91,21.38,37.76,41.15,67.53,52.3h0c43.25,5.17,82.18-8.91,115.32-31.4-.11-21.78,1.46-41.44,1.46-41.44A383.51,383.51,0,0,1,1002.63,491.35Z" transform="translate(-754.39 -357.71)"/><path class="cls-11" d="M1048.86,484.71s-7.53,94.5,11.54,98.67c22.57,4.93,63.66-43.51,56.39-124C1092.64,474.54,1067,480.87,1048.86,484.71Z" transform="translate(-754.39 -357.71)"/><polygon class="cls-12" points="208.17 63.87 208.17 63.87 208.17 63.87 208.17 63.87"/><polygon class="cls-13" points="208.17 63.87 208.17 63.87 208.17 63.87 208.17 63.87"/><path class="cls-14" d="M902.3,512.93l-.44-.55Z" transform="translate(-754.39 -357.71)"/><path class="cls-15" d="M901.23,511.57l.63.81-.75-1Z" transform="translate(-754.39 -357.71)"/><circle class="cls-16" cx="1124.63" cy="430.61" r="7.19" transform="translate(-744.17 529.3) rotate(-43.22)"/><path class="cls-17" d="M1069.11,458.71c4.07,3.88,22.18-9.38,30.91-18.54s12.71-19.56,8.88-23.21-14,.82-22.76,10S1065,454.83,1069.11,458.71Z" transform="translate(-754.39 -357.71)"/><path class="cls-18" d="M935.5,434.52c9.77,4.89,27.79,15.13,38.15,29.71,21.13-5.71,40.71-14.75,58-24.92a131.47,131.47,0,0,0-43.8-21c-11.42-3-29.38-5.32-45.85-2.28-8.22,1.52-14.66,6.15-14.45,11.06C927.76,431.43,933.82,433.69,935.5,434.52Z" transform="translate(-754.39 -357.71)"/></g></g></svg>